<mxfile host="app.diagrams.net" modified="2023-09-29T05:24:08.865Z" agent="Mozilla/5.0 (Macintosh; Intel Mac OS X 10_15_7) AppleWebKit/537.36 (KHTML, like Gecko) Chrome/117.0.0.0 Safari/537.36" etag="2htnTDsPim9A4HoknO_j" version="21.8.2" type="device">
  <diagram name="Page-1" id="LMsMllrv1b1LBs5h4BKX">
    <mxGraphModel dx="1034" dy="496" grid="1" gridSize="10" guides="1" tooltips="1" connect="1" arrows="1" fold="1" page="1" pageScale="1" pageWidth="827" pageHeight="1169" math="0" shadow="0">
      <root>
        <mxCell id="0" />
        <mxCell id="1" parent="0" />
        <mxCell id="Shv2f3eayXWwe_B8gfej-1" value="AWS Account" style="points=[[0,0],[0.25,0],[0.5,0],[0.75,0],[1,0],[1,0.25],[1,0.5],[1,0.75],[1,1],[0.75,1],[0.5,1],[0.25,1],[0,1],[0,0.75],[0,0.5],[0,0.25]];outlineConnect=0;gradientColor=none;html=1;whiteSpace=wrap;fontSize=12;fontStyle=0;container=1;pointerEvents=0;collapsible=0;recursiveResize=0;shape=mxgraph.aws4.group;grIcon=mxgraph.aws4.group_account;strokeColor=#CD2264;fillColor=none;verticalAlign=top;align=left;spacingLeft=30;fontColor=#CD2264;dashed=0;" parent="1" vertex="1">
          <mxGeometry x="76" y="195" width="720" height="390" as="geometry" />
        </mxCell>
        <mxCell id="Shv2f3eayXWwe_B8gfej-2" value="Custom-VPC" style="points=[[0,0],[0.25,0],[0.5,0],[0.75,0],[1,0],[1,0.25],[1,0.5],[1,0.75],[1,1],[0.75,1],[0.5,1],[0.25,1],[0,1],[0,0.75],[0,0.5],[0,0.25]];outlineConnect=0;gradientColor=none;html=1;whiteSpace=wrap;fontSize=12;fontStyle=0;container=1;pointerEvents=0;collapsible=0;recursiveResize=0;shape=mxgraph.aws4.group;grIcon=mxgraph.aws4.group_vpc;strokeColor=#248814;fillColor=none;verticalAlign=top;align=left;spacingLeft=30;fontColor=#AAB7B8;dashed=0;" parent="Shv2f3eayXWwe_B8gfej-1" vertex="1">
          <mxGeometry x="40" y="50" width="640" height="325" as="geometry" />
        </mxCell>
        <mxCell id="6m3LtCZBLDMlcudCJdiL-4" value="" style="rounded=1;whiteSpace=wrap;html=1;fillColor=none;dashed=1;dashPattern=8 8;strokeWidth=2;" vertex="1" parent="Shv2f3eayXWwe_B8gfej-2">
          <mxGeometry x="54" y="20" width="516" height="100" as="geometry" />
        </mxCell>
        <mxCell id="Shv2f3eayXWwe_B8gfej-5" value="" style="rounded=0;whiteSpace=wrap;html=1;fillColor=none;dashed=1;" parent="Shv2f3eayXWwe_B8gfej-2" vertex="1">
          <mxGeometry x="40" y="-20" width="230" height="350" as="geometry" />
        </mxCell>
        <mxCell id="Shv2f3eayXWwe_B8gfej-6" value="" style="rounded=0;whiteSpace=wrap;html=1;fillColor=none;dashed=1;" parent="Shv2f3eayXWwe_B8gfej-2" vertex="1">
          <mxGeometry x="360" y="-25" width="230" height="350" as="geometry" />
        </mxCell>
        <mxCell id="Shv2f3eayXWwe_B8gfej-8" value="&lt;b&gt;ap-south-1b&lt;/b&gt;" style="text;html=1;align=center;verticalAlign=middle;resizable=0;points=[];autosize=1;strokeColor=none;fillColor=none;" parent="Shv2f3eayXWwe_B8gfej-2" vertex="1">
          <mxGeometry x="420" y="-40" width="90" height="30" as="geometry" />
        </mxCell>
        <mxCell id="Shv2f3eayXWwe_B8gfej-9" value="Public subnet" style="points=[[0,0],[0.25,0],[0.5,0],[0.75,0],[1,0],[1,0.25],[1,0.5],[1,0.75],[1,1],[0.75,1],[0.5,1],[0.25,1],[0,1],[0,0.75],[0,0.5],[0,0.25]];outlineConnect=0;gradientColor=none;html=1;whiteSpace=wrap;fontSize=12;fontStyle=0;container=1;pointerEvents=0;collapsible=0;recursiveResize=0;shape=mxgraph.aws4.group;grIcon=mxgraph.aws4.group_security_group;grStroke=0;strokeColor=#248814;fillColor=#E9F3E6;verticalAlign=top;align=left;spacingLeft=30;fontColor=#248814;dashed=0;" parent="Shv2f3eayXWwe_B8gfej-2" vertex="1">
          <mxGeometry x="60" y="30" width="160" height="80" as="geometry" />
        </mxCell>
        <mxCell id="Shv2f3eayXWwe_B8gfej-16" value="&lt;b&gt;JUMP Server&lt;/b&gt;" style="outlineConnect=0;dashed=0;verticalLabelPosition=bottom;verticalAlign=top;align=center;html=1;shape=mxgraph.aws3.instance;fillColor=#F58534;gradientColor=none;" parent="Shv2f3eayXWwe_B8gfej-9" vertex="1">
          <mxGeometry x="55" y="18.5" width="40" height="43" as="geometry" />
        </mxCell>
        <mxCell id="Shv2f3eayXWwe_B8gfej-10" value="Public subnet" style="points=[[0,0],[0.25,0],[0.5,0],[0.75,0],[1,0],[1,0.25],[1,0.5],[1,0.75],[1,1],[0.75,1],[0.5,1],[0.25,1],[0,1],[0,0.75],[0,0.5],[0,0.25]];outlineConnect=0;gradientColor=none;html=1;whiteSpace=wrap;fontSize=12;fontStyle=0;container=1;pointerEvents=0;collapsible=0;recursiveResize=0;shape=mxgraph.aws4.group;grIcon=mxgraph.aws4.group_security_group;grStroke=0;strokeColor=#248814;fillColor=#E9F3E6;verticalAlign=top;align=left;spacingLeft=30;fontColor=#248814;dashed=0;" parent="Shv2f3eayXWwe_B8gfej-2" vertex="1">
          <mxGeometry x="400" y="30" width="160" height="97" as="geometry" />
        </mxCell>
        <mxCell id="QNnHdDiDqffwLh59UQm6-1" value="&lt;b&gt;NAT Instance&lt;/b&gt;" style="sketch=0;outlineConnect=0;fontColor=#232F3E;gradientColor=none;fillColor=#4D27AA;strokeColor=none;dashed=0;verticalLabelPosition=bottom;verticalAlign=top;align=center;html=1;fontSize=12;fontStyle=0;aspect=fixed;pointerEvents=1;shape=mxgraph.aws4.nat_gateway;" parent="Shv2f3eayXWwe_B8gfej-10" vertex="1">
          <mxGeometry x="50" y="25" width="45" height="45" as="geometry" />
        </mxCell>
        <mxCell id="Shv2f3eayXWwe_B8gfej-11" value="Web SN-1" style="points=[[0,0],[0.25,0],[0.5,0],[0.75,0],[1,0],[1,0.25],[1,0.5],[1,0.75],[1,1],[0.75,1],[0.5,1],[0.25,1],[0,1],[0,0.75],[0,0.5],[0,0.25]];outlineConnect=0;gradientColor=none;html=1;whiteSpace=wrap;fontSize=12;fontStyle=0;container=1;pointerEvents=0;collapsible=0;recursiveResize=0;shape=mxgraph.aws4.group;grIcon=mxgraph.aws4.group_security_group;grStroke=0;strokeColor=#147EBA;fillColor=#E6F2F8;verticalAlign=top;align=left;spacingLeft=30;fontColor=#147EBA;dashed=0;" parent="Shv2f3eayXWwe_B8gfej-2" vertex="1">
          <mxGeometry x="60" y="130" width="160" height="90" as="geometry" />
        </mxCell>
        <mxCell id="6m3LtCZBLDMlcudCJdiL-2" value="&lt;b&gt;Web Server - 1&lt;/b&gt;" style="outlineConnect=0;dashed=0;verticalLabelPosition=bottom;verticalAlign=top;align=center;html=1;shape=mxgraph.aws3.instance;fillColor=#F58534;gradientColor=none;" vertex="1" parent="Shv2f3eayXWwe_B8gfej-11">
          <mxGeometry x="60" y="22.5" width="40" height="43" as="geometry" />
        </mxCell>
        <mxCell id="Shv2f3eayXWwe_B8gfej-12" value="DB SN-1" style="points=[[0,0],[0.25,0],[0.5,0],[0.75,0],[1,0],[1,0.25],[1,0.5],[1,0.75],[1,1],[0.75,1],[0.5,1],[0.25,1],[0,1],[0,0.75],[0,0.5],[0,0.25]];outlineConnect=0;gradientColor=none;html=1;whiteSpace=wrap;fontSize=12;fontStyle=0;container=1;pointerEvents=0;collapsible=0;recursiveResize=0;shape=mxgraph.aws4.group;grIcon=mxgraph.aws4.group_security_group;grStroke=0;strokeColor=#147EBA;fillColor=#E6F2F8;verticalAlign=top;align=left;spacingLeft=30;fontColor=#147EBA;dashed=0;" parent="Shv2f3eayXWwe_B8gfej-2" vertex="1">
          <mxGeometry x="60" y="240" width="160" height="70" as="geometry" />
        </mxCell>
        <mxCell id="Shv2f3eayXWwe_B8gfej-13" value="Web SN-2" style="points=[[0,0],[0.25,0],[0.5,0],[0.75,0],[1,0],[1,0.25],[1,0.5],[1,0.75],[1,1],[0.75,1],[0.5,1],[0.25,1],[0,1],[0,0.75],[0,0.5],[0,0.25]];outlineConnect=0;gradientColor=none;html=1;whiteSpace=wrap;fontSize=12;fontStyle=0;container=1;pointerEvents=0;collapsible=0;recursiveResize=0;shape=mxgraph.aws4.group;grIcon=mxgraph.aws4.group_security_group;grStroke=0;strokeColor=#147EBA;fillColor=#E6F2F8;verticalAlign=top;align=left;spacingLeft=30;fontColor=#147EBA;dashed=0;" parent="Shv2f3eayXWwe_B8gfej-2" vertex="1">
          <mxGeometry x="400" y="130" width="160" height="90" as="geometry" />
        </mxCell>
        <mxCell id="Shv2f3eayXWwe_B8gfej-18" value="&lt;b&gt;Web Server - 2&lt;/b&gt;" style="outlineConnect=0;dashed=0;verticalLabelPosition=bottom;verticalAlign=top;align=center;html=1;shape=mxgraph.aws3.instance;fillColor=#F58534;gradientColor=none;" parent="Shv2f3eayXWwe_B8gfej-13" vertex="1">
          <mxGeometry x="54" y="22.5" width="40" height="43" as="geometry" />
        </mxCell>
        <mxCell id="Shv2f3eayXWwe_B8gfej-14" value="DB SN-2" style="points=[[0,0],[0.25,0],[0.5,0],[0.75,0],[1,0],[1,0.25],[1,0.5],[1,0.75],[1,1],[0.75,1],[0.5,1],[0.25,1],[0,1],[0,0.75],[0,0.5],[0,0.25]];outlineConnect=0;gradientColor=none;html=1;whiteSpace=wrap;fontSize=12;fontStyle=0;container=1;pointerEvents=0;collapsible=0;recursiveResize=0;shape=mxgraph.aws4.group;grIcon=mxgraph.aws4.group_security_group;grStroke=0;strokeColor=#147EBA;fillColor=#E6F2F8;verticalAlign=top;align=left;spacingLeft=30;fontColor=#147EBA;dashed=0;" parent="Shv2f3eayXWwe_B8gfej-2" vertex="1">
          <mxGeometry x="400" y="250" width="160" height="60" as="geometry" />
        </mxCell>
        <mxCell id="6m3LtCZBLDMlcudCJdiL-3" value="" style="sketch=0;outlineConnect=0;fontColor=#232F3E;gradientColor=none;fillColor=#8C4FFF;strokeColor=none;dashed=0;verticalLabelPosition=bottom;verticalAlign=top;align=center;html=1;fontSize=12;fontStyle=0;aspect=fixed;pointerEvents=1;shape=mxgraph.aws4.application_load_balancer;" vertex="1" parent="Shv2f3eayXWwe_B8gfej-2">
          <mxGeometry x="284" y="39.5" width="61" height="61" as="geometry" />
        </mxCell>
        <mxCell id="6m3LtCZBLDMlcudCJdiL-6" style="edgeStyle=orthogonalEdgeStyle;rounded=0;orthogonalLoop=1;jettySize=auto;html=1;" edge="1" parent="Shv2f3eayXWwe_B8gfej-2" source="6m3LtCZBLDMlcudCJdiL-2" target="6m3LtCZBLDMlcudCJdiL-3">
          <mxGeometry relative="1" as="geometry" />
        </mxCell>
        <mxCell id="6m3LtCZBLDMlcudCJdiL-7" style="edgeStyle=orthogonalEdgeStyle;rounded=0;orthogonalLoop=1;jettySize=auto;html=1;" edge="1" parent="Shv2f3eayXWwe_B8gfej-2" source="Shv2f3eayXWwe_B8gfej-18" target="6m3LtCZBLDMlcudCJdiL-3">
          <mxGeometry relative="1" as="geometry" />
        </mxCell>
        <mxCell id="Shv2f3eayXWwe_B8gfej-7" value="&lt;b&gt;ap-south-1a&lt;/b&gt;" style="text;html=1;align=center;verticalAlign=middle;resizable=0;points=[];autosize=1;strokeColor=none;fillColor=none;" parent="Shv2f3eayXWwe_B8gfej-1" vertex="1">
          <mxGeometry x="130" y="10" width="90" height="30" as="geometry" />
        </mxCell>
        <mxCell id="Shv2f3eayXWwe_B8gfej-21" value="Actor" style="shape=umlActor;verticalLabelPosition=bottom;verticalAlign=top;html=1;outlineConnect=0;" parent="1" vertex="1">
          <mxGeometry x="457" y="76" width="30" height="60" as="geometry" />
        </mxCell>
        <mxCell id="6m3LtCZBLDMlcudCJdiL-8" style="edgeStyle=orthogonalEdgeStyle;rounded=0;orthogonalLoop=1;jettySize=auto;html=1;" edge="1" parent="1" source="Shv2f3eayXWwe_B8gfej-22" target="6m3LtCZBLDMlcudCJdiL-3">
          <mxGeometry relative="1" as="geometry" />
        </mxCell>
        <mxCell id="Shv2f3eayXWwe_B8gfej-22" value="" style="verticalLabelPosition=bottom;html=1;verticalAlign=top;align=center;strokeColor=none;fillColor=#00BEF2;shape=mxgraph.azure.laptop;pointerEvents=1;" parent="1" vertex="1">
          <mxGeometry x="405" y="109" width="50" height="30" as="geometry" />
        </mxCell>
        <mxCell id="6m3LtCZBLDMlcudCJdiL-9" value="VPC" style="points=[[0,0],[0.25,0],[0.5,0],[0.75,0],[1,0],[1,0.25],[1,0.5],[1,0.75],[1,1],[0.75,1],[0.5,1],[0.25,1],[0,1],[0,0.75],[0,0.5],[0,0.25]];outlineConnect=0;gradientColor=none;html=1;whiteSpace=wrap;fontSize=12;fontStyle=0;container=1;pointerEvents=0;collapsible=0;recursiveResize=0;shape=mxgraph.aws4.group;grIcon=mxgraph.aws4.group_vpc;strokeColor=#248814;fillColor=none;verticalAlign=top;align=left;spacingLeft=30;fontColor=#AAB7B8;dashed=0;" vertex="1" parent="1">
          <mxGeometry x="50" y="720" width="684" height="240" as="geometry" />
        </mxCell>
        <mxCell id="6m3LtCZBLDMlcudCJdiL-12" value="&lt;b&gt;Source&lt;/b&gt;" style="outlineConnect=0;dashed=0;verticalLabelPosition=bottom;verticalAlign=top;align=center;html=1;shape=mxgraph.aws3.rds;fillColor=#2E73B8;gradientColor=none;" vertex="1" parent="6m3LtCZBLDMlcudCJdiL-9">
          <mxGeometry x="80" y="85" width="62" height="70" as="geometry" />
        </mxCell>
        <mxCell id="6m3LtCZBLDMlcudCJdiL-15" value="&lt;b&gt;Target&lt;/b&gt;" style="outlineConnect=0;dashed=0;verticalLabelPosition=bottom;verticalAlign=top;align=center;html=1;shape=mxgraph.aws3.rds;fillColor=#2E73B8;gradientColor=none;" vertex="1" parent="6m3LtCZBLDMlcudCJdiL-9">
          <mxGeometry x="510" y="85" width="62" height="70" as="geometry" />
        </mxCell>
        <mxCell id="6m3LtCZBLDMlcudCJdiL-18" style="edgeStyle=orthogonalEdgeStyle;rounded=0;orthogonalLoop=1;jettySize=auto;html=1;" edge="1" parent="6m3LtCZBLDMlcudCJdiL-9" source="6m3LtCZBLDMlcudCJdiL-16" target="6m3LtCZBLDMlcudCJdiL-12">
          <mxGeometry relative="1" as="geometry" />
        </mxCell>
        <mxCell id="6m3LtCZBLDMlcudCJdiL-16" value="&lt;b&gt;DMS Instance&lt;/b&gt;" style="sketch=0;points=[[0,0,0],[0.25,0,0],[0.5,0,0],[0.75,0,0],[1,0,0],[0,1,0],[0.25,1,0],[0.5,1,0],[0.75,1,0],[1,1,0],[0,0.25,0],[0,0.5,0],[0,0.75,0],[1,0.25,0],[1,0.5,0],[1,0.75,0]];outlineConnect=0;fontColor=#232F3E;fillColor=#C925D1;strokeColor=#ffffff;dashed=0;verticalLabelPosition=bottom;verticalAlign=top;align=center;html=1;fontSize=12;fontStyle=0;aspect=fixed;shape=mxgraph.aws4.resourceIcon;resIcon=mxgraph.aws4.database_migration_service;" vertex="1" parent="6m3LtCZBLDMlcudCJdiL-9">
          <mxGeometry x="300" y="81" width="78" height="78" as="geometry" />
        </mxCell>
        <mxCell id="6m3LtCZBLDMlcudCJdiL-20" style="edgeStyle=orthogonalEdgeStyle;rounded=0;orthogonalLoop=1;jettySize=auto;html=1;entryX=0;entryY=0.5;entryDx=0;entryDy=0;entryPerimeter=0;" edge="1" parent="6m3LtCZBLDMlcudCJdiL-9" source="6m3LtCZBLDMlcudCJdiL-16" target="6m3LtCZBLDMlcudCJdiL-15">
          <mxGeometry relative="1" as="geometry" />
        </mxCell>
        <mxCell id="6m3LtCZBLDMlcudCJdiL-21" value="&lt;b&gt;Target Endpoint&lt;/b&gt;" style="text;html=1;align=center;verticalAlign=middle;resizable=0;points=[];autosize=1;strokeColor=none;fillColor=none;" vertex="1" parent="6m3LtCZBLDMlcudCJdiL-9">
          <mxGeometry x="390" y="129" width="110" height="30" as="geometry" />
        </mxCell>
        <mxCell id="6m3LtCZBLDMlcudCJdiL-13" value="&lt;b&gt;Restore the Sample DB&lt;br&gt;in Source RDS CLuster&lt;/b&gt;" style="text;html=1;align=center;verticalAlign=middle;resizable=0;points=[];autosize=1;strokeColor=none;fillColor=none;" vertex="1" parent="1">
          <mxGeometry x="90" y="980" width="160" height="40" as="geometry" />
        </mxCell>
        <mxCell id="6m3LtCZBLDMlcudCJdiL-17" value="1. Create an RDS clyster and inittiate the sambple db restore&amp;nbsp;" style="text;html=1;align=center;verticalAlign=middle;resizable=0;points=[];autosize=1;strokeColor=none;fillColor=none;" vertex="1" parent="1">
          <mxGeometry x="30" y="1058" width="350" height="30" as="geometry" />
        </mxCell>
        <mxCell id="6m3LtCZBLDMlcudCJdiL-19" value="&lt;b&gt;Source Endpoint&lt;/b&gt;" style="text;html=1;align=center;verticalAlign=middle;resizable=0;points=[];autosize=1;strokeColor=none;fillColor=none;" vertex="1" parent="1">
          <mxGeometry x="200" y="848" width="120" height="30" as="geometry" />
        </mxCell>
      </root>
    </mxGraphModel>
  </diagram>
</mxfile>
